<?xml version="1.0" encoding="iso-8859-1"?>
<!-- Generator: Adobe Illustrator 19.0.0, SVG Export Plug-In . SVG Version: 6.00 Build 0)  -->
<svg version="1.1" id="Capa_1" xmlns="http://www.w3.org/2000/svg" xmlns:xlink="http://www.w3.org/1999/xlink" x="0px" y="0px"
	 viewBox="0 0 337.985 337.985" style="enable-background:new 0 0 337.985 337.985;" xml:space="preserve">
<g>
	<path style="fill:#CD9B47;" d="M264.192,176.385h-190.4c-7.2,73.6,30,121.6,95.2,153.6
		C234.192,298.385,271.392,249.985,264.192,176.385z"/>
	<path style="fill:#8B554A;" d="M45.392,176.385h247.6c0-51.2-42-92.8-92.8-92.8h-62C86.992,83.585,45.392,125.185,45.392,176.385z"
		/>
</g>
<path style="fill:#5F1C1C;" d="M213.392,15.985c4-2,6-6.8,4-11.2c-2-4-6.8-6-11.2-4c-17.2,8.4-29.2,20-36.4,34
	c-6,11.6-8.8,25.2-9.2,40.4h-22.4c-28,0-53.2,11.2-71.6,29.6s-29.6,43.6-29.6,71.6c0,4.4,3.6,8.4,8.4,8.4h19.6
	c-1.6,34.8,6.4,64,22.4,88.8c17.6,26.4,44.4,47.6,78,64h0.4c0.4,0,0.4,0.4,0.8,0.4c0.4,0,0.4,0,0.8,0c0.4,0,0.4,0,0.8,0
	c0.4,0,0.4,0,0.8,0c0.4,0,0.4,0,0.8,0s0.4,0,0.8,0s0.4,0,0.8,0s0.4,0,0.8-0.4h0.4c34-16.4,60.8-37.6,78-64
	c16.4-24.8,24.4-54,22.4-88.8h19.6c4.4,0,8.4-3.6,8.4-8.4c0-28-11.2-53.2-29.6-71.6s-43.6-29.6-71.6-29.6h-22.8
	c0-12.4,2.4-23.2,7.2-32.8C190.192,31.585,199.392,22.385,213.392,15.985z M236.992,264.385c-15.2,22.8-38.4,41.2-68,56.4
	c-29.6-14.8-52.8-33.2-68-56.4c-14.4-22-21.2-48.4-19.6-79.6h175.2C258.192,216.385,251.392,242.385,236.992,264.385z
	 M259.392,116.785c13.6,13.6,22.4,31.6,24.4,51.6h-230c2-20,10.8-38,24.4-51.6c15.2-15.2,36.4-24.8,59.6-24.8h61.6
	C222.992,91.585,244.192,101.185,259.392,116.785z"/>
<g>
</g>
<g>
</g>
<g>
</g>
<g>
</g>
<g>
</g>
<g>
</g>
<g>
</g>
<g>
</g>
<g>
</g>
<g>
</g>
<g>
</g>
<g>
</g>
<g>
</g>
<g>
</g>
<g>
</g>
</svg>
